<?xml version="1.0" encoding="utf-8"?>
<!-- Generator: Adobe Illustrator 15.1.0, SVG Export Plug-In . SVG Version: 6.00 Build 0)  -->
<!DOCTYPE svg PUBLIC "-//W3C//DTD SVG 1.1//EN" "http://www.w3.org/Graphics/SVG/1.1/DTD/svg11.dtd">
<svg version="1.1" id="圖層_1" xmlns="http://www.w3.org/2000/svg" xmlns:xlink="http://www.w3.org/1999/xlink" x="0px" y="0px"
	 width="200px" height="77px" viewBox="0 0 200 77" enable-background="new 0 0 200 77" xml:space="preserve">
<g>
	<path fill="#B0AFAF" d="M48.048,45.752c-0.592,3.134-1.1,6.319-1.529,9.56c-3.053,0.535-5.85,0.91-8.395,1.127
		c-2.544,0.213-4.727,0.321-6.548,0.321c-4.014,0-7.853-0.564-11.508-1.688c-3.656-1.125-6.948-2.896-9.882-5.322
		c-2.932-2.423-5.055-5.362-6.366-8.816c-1.311-3.455-1.968-7.23-1.968-11.327c0-4.446,0.791-8.557,2.37-12.332
		c1.579-3.777,3.85-6.963,6.81-9.561c2.957-2.598,6.458-4.533,10.504-5.805C25.578,0.636,29.795,0,34.189,0
		c4.336,0,9.078,0.495,14.218,1.485c0.082,2.385,0.163,4.072,0.241,5.062l0.28,4.298c-3.024-0.803-5.54-1.352-7.549-1.647
		c-2.009-0.293-3.924-0.441-5.745-0.441c-2.865,0-5.617,0.436-8.255,1.306c-2.637,0.871-4.969,2.257-6.988,4.158
		c-2.022,1.9-3.573,4.197-4.661,6.889c-1.085,2.691-1.626,5.497-1.626,8.416c0,3.482,0.671,6.602,2.009,9.36
		c1.339,2.757,3.488,4.994,6.448,6.709c2.959,1.714,6.622,2.569,10.986,2.569C37.589,48.162,42.424,47.358,48.048,45.752z"/>
	<path fill="#4F90BC" d="M34.04,77.452l0.935-14.423c0.515-7.871,0.881-15.175,1.096-21.91c0.219-6.736,0.326-11.428,0.326-14.08
		l-0.04-4.419c3.153,0.055,5.383,0.081,6.694,0.081c0.987,0,3.004-0.025,6.051-0.081l-1.062,18.117l-0.123,4.178h27.346
		l0.497-10.866c0.108-3.728,0.166-6.184,0.166-7.364V22.62l6.713,0.081c0.589,0,2.598-0.025,6.029-0.081l-1.326,21.895
		l-0.564,16.228l-0.151,9.519c-0.05,3.913-0.076,6.308-0.076,7.192l-6.271-0.08c-0.777,0-3.005,0.025-6.675,0.08
		c0.699-7.577,1.145-15.546,1.332-23.901H47.512l-0.566,14.783l-0.163,9.118l-6.593-0.08C39.466,77.372,37.416,77.396,34.04,77.452z
		"/>
	<path fill="#939292" d="M99.944,48.314c-0.094,0.493-0.173,0.994-0.241,1.505c-0.48,0.083-0.919,0.142-1.319,0.176
		s-0.743,0.051-1.03,0.051c-0.631,0-1.233-0.088-1.808-0.265c-0.573-0.177-1.091-0.455-1.552-0.837c-0.46-0.382-0.793-0.842-1-1.386
		c-0.207-0.542-0.31-1.136-0.31-1.781c0-0.698,0.124-1.343,0.373-1.938c0.248-0.592,0.604-1.092,1.07-1.501
		c0.465-0.409,1.015-0.714,1.651-0.914c0.635-0.198,1.296-0.299,1.988-0.299c0.682,0,1.427,0.077,2.235,0.232
		c0.013,0.376,0.024,0.64,0.037,0.797l0.043,0.673c-0.475-0.125-0.868-0.211-1.186-0.257c-0.314-0.046-0.616-0.069-0.902-0.069
		c-0.451,0-0.882,0.068-1.297,0.206c-0.415,0.136-0.78,0.354-1.099,0.652c-0.316,0.301-0.561,0.662-0.732,1.084
		c-0.17,0.423-0.256,0.864-0.256,1.322c0,0.547,0.105,1.039,0.316,1.472c0.209,0.435,0.548,0.783,1.013,1.052
		c0.466,0.271,1.042,0.404,1.728,0.404C98.299,48.694,99.061,48.568,99.944,48.314z"/>
	<path fill="#939292" d="M101.295,49.893l0.146-2.266c0.08-1.237,0.137-2.384,0.172-3.442c0.035-1.06,0.051-1.796,0.051-2.214
		l-0.006-0.693c0.495,0.009,0.848,0.013,1.051,0.013c0.156,0,0.473-0.004,0.953-0.013l-0.168,2.847l-0.02,0.657h4.297l0.078-1.707
		c0.018-0.586,0.025-0.973,0.025-1.157v-0.639l1.055,0.013c0.092,0,0.408-0.004,0.945-0.013l-0.209,3.44l-0.088,2.55l-0.023,1.495
		c-0.006,0.617-0.012,0.994-0.012,1.131l-0.984-0.011c-0.121,0-0.471,0.002-1.049,0.011c0.109-1.189,0.18-2.442,0.209-3.754h-4.311
		l-0.088,2.322l-0.023,1.432l-1.038-0.011C102.146,49.882,101.824,49.886,101.295,49.893z"/>
	<path fill="#939292" d="M111.311,49.893l0.186-2.418l0.133-2.795l0.082-2.544v-0.858c1.039,0.009,2.119,0.013,3.248,0.013
		l1.215-0.007L118,41.277l-0.078,1.364l-0.6-0.032c-0.162-0.009-0.391-0.015-0.682-0.019c-0.289-0.003-0.586-0.007-0.891-0.007
		c-0.654,0-1.08,0.001-1.271,0.004c-0.191,0.002-0.482,0.01-0.867,0.021l-0.104,2.239c0.576,0.017,1.16,0.022,1.744,0.022
		c0.402,0,1.084-0.014,2.045-0.039c-0.033,0.384-0.063,0.844-0.088,1.377c-1.123-0.013-1.766-0.021-1.932-0.021
		c-0.496,0-1.113,0.015-1.855,0.039l-0.102,2.36l0.693,0.007c0.203,0,0.664-0.004,1.391-0.013l1.369-0.026l0.914-0.043
		c-0.043,0.488-0.07,0.948-0.088,1.382c-1.094-0.009-2.082-0.013-2.961-0.013l-2.074,0.007L111.311,49.893z"/>
	<path fill="#939292" d="M119.203,49.893c0.127-1.252,0.223-2.695,0.287-4.323c0.063-1.63,0.094-3.059,0.094-4.292
		c0.506,0.009,0.928,0.013,1.27,0.013c0.367,0,0.725-0.007,1.074-0.02c0.352-0.014,0.723-0.019,1.115-0.019
		c0.488,0,0.924,0.026,1.311,0.081c0.385,0.056,0.725,0.181,1.023,0.379c0.301,0.198,0.521,0.438,0.668,0.719
		c0.145,0.282,0.217,0.611,0.217,0.986c0,0.235-0.025,0.46-0.08,0.67c-0.059,0.214-0.137,0.413-0.244,0.602
		c-0.107,0.186-0.234,0.35-0.383,0.491c-0.148,0.141-0.293,0.253-0.439,0.333c-0.145,0.085-0.309,0.154-0.494,0.213
		s-0.432,0.13-0.744,0.215l0.43,0.831c0.139,0.268,0.4,0.742,0.787,1.429l0.639,1.115c0.035,0.061,0.137,0.252,0.303,0.575
		c-0.516-0.009-0.857-0.011-1.021-0.011c-0.201,0-0.557,0.002-1.068,0.011l-0.699-1.678c-0.121-0.257-0.27-0.561-0.439-0.909
		l-0.764-1.532c-0.076-0.144-0.182-0.359-0.316-0.646c0.281,0.05,0.539,0.075,0.773,0.075c0.359,0,0.688-0.058,0.988-0.176
		c0.301-0.117,0.531-0.3,0.691-0.547c0.158-0.245,0.238-0.514,0.238-0.803c0-0.178-0.033-0.343-0.102-0.494
		c-0.07-0.151-0.189-0.279-0.352-0.384c-0.164-0.106-0.359-0.173-0.588-0.203c-0.229-0.029-0.453-0.044-0.682-0.044
		c-0.125,0-0.299,0.002-0.516,0.006c-0.223,0.005-0.488,0.009-0.809,0.009l-0.113,2.593l-0.121,4.733l-0.979-0.011
		C120,49.882,119.684,49.886,119.203,49.893z"/>
	<path fill="#939292" d="M127.371,49.893c0.078-0.751,0.139-1.598,0.184-2.536l0.143-3.094c0.049-1.118,0.074-2.114,0.074-2.985
		c0.488,0.009,0.902,0.013,1.244,0.013c0.252,0,0.621-0.004,1.105-0.013c0.475,0.83,1.131,1.911,1.969,3.244
		c0.836,1.334,1.514,2.439,2.027,3.313l0.232-5.856c0.002-0.141,0.004-0.372,0.004-0.701c0.398,0.009,0.697,0.013,0.898,0.013
		c0.082,0,0.375-0.004,0.887-0.013l-0.158,2.317l-0.195,3.963l-0.074,2.335c-0.439-0.009-0.813-0.011-1.117-0.011
		c-0.246,0-0.641,0.002-1.188,0.011c-0.209-0.373-0.371-0.651-0.48-0.831c-0.174-0.28-0.543-0.851-1.105-1.717
		c-0.369-0.574-0.832-1.307-1.387-2.198c-0.41-0.656-0.76-1.229-1.051-1.717c-0.033,0.682-0.086,1.946-0.156,3.792
		c-0.029,0.755-0.053,1.645-0.07,2.671c-0.395-0.009-0.682-0.013-0.859-0.013C128.16,49.882,127.852,49.886,127.371,49.893z"/>
	<path fill="#939292" d="M142.508,44.971c0.58,0.009,1.135,0.013,1.664,0.013c0.697,0,1.277-0.004,1.74-0.013
		c-0.115,1.41-0.189,2.976-0.238,4.696c-0.697,0.139-1.33,0.237-1.895,0.294c-0.561,0.06-1.043,0.086-1.436,0.086
		c-0.74,0-1.428-0.078-2.061-0.233s-1.172-0.408-1.609-0.759c-0.438-0.347-0.77-0.809-0.998-1.38
		c-0.229-0.568-0.346-1.172-0.346-1.808c0-0.543,0.086-1.068,0.256-1.571c0.17-0.505,0.422-0.967,0.758-1.39
		c0.336-0.419,0.738-0.771,1.215-1.05c0.471-0.279,0.975-0.473,1.504-0.575c0.533-0.104,1.096-0.154,1.691-0.154
		c0.816,0,1.754,0.11,2.814,0.328c0.004,0.478,0.025,0.978,0.07,1.503c-0.994-0.332-1.893-0.499-2.699-0.499
		c-0.516,0-1.004,0.073-1.465,0.221c-0.461,0.148-0.857,0.376-1.191,0.685c-0.336,0.309-0.592,0.692-0.766,1.15
		c-0.176,0.456-0.262,0.927-0.262,1.415c0,0.543,0.1,1.027,0.301,1.456c0.197,0.428,0.533,0.759,1.004,0.994
		c0.473,0.236,1.014,0.354,1.623,0.354c0.223,0,0.488-0.021,0.791-0.061c0.303-0.039,0.617-0.109,0.943-0.205l0.105-2.216
		l-0.498-0.007c-0.283,0-0.641,0.007-1.076,0.018C142.488,45.702,142.508,45.268,142.508,44.971z"/>
	<path fill="#939292" d="M150.641,49.893l0.146-2.266c0.078-1.237,0.137-2.384,0.172-3.442c0.031-1.06,0.051-1.796,0.051-2.214
		l-0.008-0.693c0.496,0.009,0.848,0.013,1.053,0.013c0.156,0,0.471-0.004,0.951-0.013l-0.166,2.847l-0.023,0.657h4.297l0.082-1.707
		c0.016-0.586,0.025-0.973,0.025-1.157v-0.639l1.055,0.013c0.092,0,0.408-0.004,0.945-0.013l-0.207,3.44l-0.09,2.55l-0.023,1.495
		c-0.006,0.617-0.012,0.994-0.012,1.131l-0.984-0.011c-0.123,0-0.471,0.002-1.051,0.011c0.111-1.189,0.18-2.442,0.211-3.754h-4.311
		l-0.088,2.322l-0.025,1.432l-1.037-0.011C151.492,49.882,151.168,49.886,150.641,49.893z"/>
	<path fill="#939292" d="M165.561,41.127c0.627,0,1.23,0.086,1.807,0.258c0.576,0.173,1.086,0.452,1.533,0.844
		c0.445,0.389,0.783,0.844,1.012,1.359c0.229,0.519,0.338,1.122,0.338,1.813c0,0.648-0.105,1.27-0.32,1.857
		c-0.215,0.593-0.547,1.103-0.996,1.53c-0.451,0.428-1,0.743-1.643,0.95c-0.646,0.204-1.326,0.308-2.035,0.308
		c-0.674,0-1.322-0.096-1.941-0.283c-0.621-0.191-1.156-0.486-1.604-0.893c-0.449-0.402-0.771-0.866-0.961-1.391
		c-0.195-0.525-0.293-1.091-0.293-1.702c0-0.668,0.121-1.309,0.363-1.918c0.242-0.611,0.598-1.115,1.068-1.516
		c0.467-0.399,1.018-0.703,1.645-0.908C164.164,41.229,164.838,41.127,165.561,41.127z M165.461,42.472
		c-0.635,0-1.189,0.146-1.66,0.439c-0.471,0.292-0.824,0.689-1.063,1.197c-0.238,0.509-0.357,1.058-0.357,1.645
		c0,0.547,0.113,1.052,0.344,1.513c0.23,0.46,0.582,0.811,1.057,1.054c0.475,0.242,0.99,0.362,1.541,0.362
		c0.416,0,0.814-0.071,1.193-0.214c0.377-0.145,0.705-0.361,0.98-0.654s0.484-0.644,0.625-1.057
		c0.137-0.411,0.207-0.843,0.207-1.287c0-0.418-0.061-0.816-0.184-1.2c-0.125-0.382-0.32-0.712-0.58-0.988
		c-0.262-0.274-0.578-0.48-0.945-0.612C166.252,42.536,165.865,42.472,165.461,42.472z"/>
	<path fill="#939292" d="M171.438,49.893c0.127-1.252,0.223-2.695,0.287-4.323c0.063-1.63,0.094-3.059,0.094-4.292
		c0.506,0.009,0.928,0.013,1.27,0.013c0.367,0,0.725-0.007,1.076-0.02c0.354-0.014,0.723-0.019,1.113-0.019
		c0.488,0,0.924,0.026,1.311,0.081c0.387,0.056,0.725,0.181,1.025,0.379c0.299,0.198,0.52,0.438,0.668,0.719
		c0.143,0.282,0.217,0.611,0.217,0.986c0,0.235-0.027,0.46-0.082,0.67c-0.055,0.214-0.135,0.413-0.244,0.602
		c-0.107,0.186-0.234,0.35-0.383,0.491c-0.145,0.141-0.293,0.253-0.439,0.333c-0.145,0.085-0.309,0.154-0.494,0.213
		s-0.434,0.13-0.744,0.215l0.428,0.831c0.139,0.268,0.4,0.742,0.787,1.429l0.641,1.115c0.031,0.061,0.135,0.252,0.301,0.575
		c-0.514-0.009-0.854-0.011-1.018-0.011c-0.203,0-0.561,0.002-1.07,0.011l-0.701-1.678c-0.121-0.257-0.266-0.561-0.438-0.909
		l-0.766-1.532c-0.074-0.144-0.182-0.359-0.313-0.646c0.281,0.05,0.537,0.075,0.77,0.075c0.361,0,0.691-0.058,0.992-0.176
		c0.297-0.117,0.527-0.3,0.688-0.547c0.158-0.245,0.238-0.514,0.238-0.803c0-0.178-0.033-0.343-0.102-0.494
		c-0.072-0.151-0.188-0.279-0.352-0.384c-0.164-0.106-0.359-0.173-0.588-0.203c-0.227-0.028-0.453-0.044-0.682-0.044
		c-0.125,0-0.297,0.002-0.514,0.006c-0.223,0.005-0.49,0.009-0.811,0.009l-0.113,2.593l-0.119,4.733l-0.979-0.011
		C172.236,49.882,171.916,49.886,171.438,49.893z"/>
	<path fill="#939292" d="M179.607,49.893c0.078-0.751,0.139-1.598,0.182-2.536l0.146-3.094c0.049-1.118,0.072-2.114,0.072-2.985
		c0.486,0.009,0.904,0.013,1.242,0.013c0.252,0,0.621-0.004,1.105-0.013c0.475,0.83,1.131,1.911,1.971,3.244
		c0.836,1.334,1.512,2.439,2.025,3.313l0.232-5.856c0.002-0.141,0.008-0.372,0.008-0.701c0.395,0.009,0.693,0.013,0.898,0.013
		c0.078,0,0.373-0.004,0.885-0.013l-0.16,2.317l-0.195,3.963l-0.074,2.335c-0.436-0.009-0.811-0.011-1.117-0.011
		c-0.246,0-0.641,0.002-1.188,0.011c-0.209-0.373-0.369-0.651-0.48-0.831c-0.17-0.28-0.541-0.851-1.105-1.717
		c-0.369-0.574-0.832-1.307-1.387-2.198c-0.408-0.656-0.758-1.229-1.051-1.717c-0.029,0.682-0.084,1.946-0.156,3.792
		c-0.029,0.755-0.051,1.645-0.068,2.671c-0.395-0.009-0.684-0.013-0.859-0.013C180.396,49.882,180.086,49.886,179.607,49.893z"/>
	<path fill="#939292" d="M194.744,44.971c0.578,0.009,1.133,0.013,1.666,0.013c0.695,0,1.273-0.004,1.738-0.013
		c-0.111,1.41-0.191,2.976-0.236,4.696c-0.699,0.139-1.332,0.237-1.893,0.294c-0.564,0.06-1.047,0.086-1.439,0.086
		c-0.74,0-1.428-0.078-2.063-0.233c-0.633-0.155-1.168-0.408-1.605-0.759c-0.436-0.347-0.77-0.809-0.998-1.38
		c-0.229-0.568-0.346-1.172-0.346-1.808c0-0.543,0.084-1.068,0.256-1.571c0.17-0.505,0.424-0.967,0.758-1.39
		c0.334-0.419,0.738-0.771,1.211-1.05s0.977-0.473,1.508-0.575c0.535-0.104,1.098-0.154,1.689-0.154c0.818,0,1.756,0.11,2.816,0.328
		c0.004,0.478,0.027,0.978,0.068,1.503c-0.992-0.332-1.891-0.499-2.693-0.499c-0.52,0-1.006,0.073-1.469,0.221
		c-0.461,0.148-0.855,0.376-1.193,0.685c-0.332,0.309-0.588,0.692-0.764,1.15c-0.174,0.456-0.262,0.927-0.262,1.415
		c0,0.543,0.1,1.027,0.301,1.456c0.199,0.428,0.535,0.759,1.008,0.994c0.471,0.236,1.01,0.354,1.623,0.354
		c0.221,0,0.486-0.021,0.789-0.061c0.301-0.039,0.617-0.109,0.945-0.205l0.104-2.216l-0.498-0.007c-0.283,0-0.641,0.007-1.074,0.018
		C194.725,45.702,194.744,45.268,194.744,44.971z"/>
	<path fill="#939292" d="M92.734,64.259l0.165-1.427l0.417-5.013l0.146-2.177c0.6,0.009,1.04,0.011,1.318,0.011
		c0.224,0,0.628-0.002,1.217-0.011c0.067,0.34,0.118,0.583,0.152,0.724c0.035,0.144,0.098,0.374,0.195,0.69
		c0.096,0.313,0.222,0.697,0.373,1.146c0.224,0.682,0.425,1.356,0.602,2.021l0.481,1.806l0.844-2.316l1.228-3.012
		c0.041-0.101,0.085-0.218,0.128-0.349c0.045-0.134,0.12-0.371,0.225-0.711c0.5,0.009,0.947,0.011,1.339,0.011
		c0.26,0,0.677-0.002,1.25-0.011c-0.059,1.212-0.102,2.55-0.133,4.018c-0.027,1.466-0.043,2.562-0.043,3.285
		c0,0.349,0.004,0.786,0.012,1.313c-0.415-0.009-0.699-0.013-0.852-0.013c-0.218,0-0.51,0.004-0.87,0.013
		c0.023-0.43,0.04-0.783,0.048-1.061l0.107-3.757c0.013-0.53,0.02-1.051,0.02-1.566l-0.007-0.509l-2.319,6.14l-0.271,0.753
		c-0.41-0.009-0.69-0.013-0.843-0.013c-0.191,0-0.488,0.004-0.894,0.013l-1.088-3.888c-0.038-0.14-0.126-0.432-0.264-0.873
		l-0.393-1.286c-0.038-0.121-0.065-0.221-0.085-0.301c-0.018-0.077-0.061-0.252-0.122-0.521l-0.083,0.809
		c-0.022,0.257-0.053,0.686-0.096,1.288l-0.246,3.913c-0.009,0.193-0.015,0.479-0.02,0.858l-0.814-0.015
		C93.423,64.245,93.146,64.249,92.734,64.259z"/>
	<path fill="#939292" d="M104.723,59.247c0.059-0.305,0.096-0.517,0.111-0.639c0.016-0.121,0.039-0.306,0.078-0.556
		c0.574-0.133,1.076-0.229,1.514-0.284c0.438-0.054,0.863-0.08,1.271-0.08c0.461,0,0.889,0.053,1.273,0.16
		c0.389,0.106,0.689,0.278,0.908,0.515s0.328,0.575,0.328,1.016c0,0.239-0.033,0.852-0.1,1.834
		c-0.068,0.983-0.107,1.999-0.117,3.046c-0.324-0.01-0.617-0.014-0.885-0.014c-0.256,0-0.559,0.004-0.904,0.014
		c0.055-0.509,0.1-1.1,0.133-1.768l0.086-1.571c-0.162,0.105-0.283,0.178-0.367,0.219c-0.084,0.044-0.18,0.083-0.285,0.117
		c-0.105,0.036-0.291,0.092-0.557,0.163c-0.266,0.074-0.479,0.139-0.637,0.193c-0.16,0.056-0.305,0.117-0.434,0.185
		c-0.131,0.071-0.236,0.148-0.326,0.236c-0.088,0.085-0.152,0.176-0.193,0.27c-0.039,0.095-0.059,0.198-0.059,0.308
		c0,0.176,0.049,0.328,0.154,0.456c0.102,0.128,0.232,0.218,0.389,0.269s0.34,0.074,0.549,0.074c0.133,0,0.277-0.009,0.426-0.031
		c0.15-0.021,0.352-0.07,0.604-0.157c-0.088,0.24-0.193,0.599-0.311,1.074c-0.299,0.05-0.535,0.082-0.713,0.093
		c-0.176,0.016-0.34,0.02-0.49,0.02c-0.533,0-0.967-0.071-1.307-0.212c-0.344-0.144-0.594-0.371-0.756-0.683
		c-0.164-0.312-0.244-0.624-0.244-0.941c0-0.18,0.033-0.36,0.096-0.536c0.063-0.177,0.156-0.338,0.277-0.486
		c0.121-0.147,0.281-0.29,0.475-0.427c0.195-0.137,0.475-0.268,0.84-0.397c0.365-0.127,0.85-0.255,1.451-0.388
		c0.162-0.033,0.328-0.074,0.502-0.122c0.17-0.05,0.307-0.096,0.412-0.144c0.104-0.046,0.193-0.105,0.27-0.18
		c0.074-0.073,0.129-0.15,0.166-0.23c0.035-0.078,0.055-0.16,0.055-0.247c0-0.163-0.055-0.302-0.162-0.415
		c-0.107-0.115-0.246-0.193-0.418-0.237c-0.168-0.045-0.357-0.066-0.564-0.066C106.494,58.698,105.65,58.88,104.723,59.247z"/>
	<path fill="#939292" d="M116.596,62.8c-0.021,0.174-0.055,0.368-0.094,0.588c-0.043,0.218-0.088,0.49-0.135,0.815
		c-0.602,0.137-1.193,0.207-1.779,0.207c-0.344,0-0.672-0.031-0.986-0.095c-0.314-0.062-0.609-0.175-0.881-0.338
		c-0.27-0.162-0.51-0.375-0.717-0.64c-0.205-0.265-0.359-0.586-0.463-0.964c-0.104-0.377-0.154-0.764-0.154-1.164
		c0-0.531,0.084-1.039,0.256-1.528c0.17-0.487,0.418-0.887,0.748-1.195c0.328-0.31,0.691-0.521,1.094-0.631
		c0.402-0.113,0.852-0.166,1.34-0.166c0.273,0,0.557,0.017,0.848,0.046c0.289,0.033,0.633,0.098,1.029,0.191l0.094,1.385
		c-0.627-0.215-1.17-0.323-1.637-0.323c-0.287,0-0.559,0.049-0.813,0.146c-0.254,0.098-0.473,0.252-0.654,0.457
		c-0.182,0.209-0.313,0.451-0.391,0.724c-0.076,0.273-0.115,0.554-0.115,0.839c0,0.4,0.063,0.746,0.186,1.038
		c0.121,0.293,0.338,0.521,0.639,0.68s0.646,0.239,1.033,0.239c0.189,0,0.42-0.022,0.689-0.072
		C116.01,62.99,116.293,62.91,116.596,62.8z"/>
	<path fill="#939292" d="M117.883,64.259l0.15-2.052l0.15-2.937l0.09-3.629c0.371,0.009,0.676,0.011,0.922,0.011
		c0.318,0,0.625-0.002,0.914-0.011l-0.113,1.501c-0.025,0.372-0.061,0.967-0.102,1.787c0.135-0.202,0.248-0.354,0.34-0.455
		c0.088-0.101,0.189-0.193,0.303-0.279c0.111-0.087,0.225-0.16,0.344-0.219c0.117-0.057,0.254-0.112,0.414-0.158
		c0.156-0.047,0.332-0.081,0.527-0.106c0.193-0.024,0.391-0.041,0.592-0.041c0.35,0,0.686,0.041,1.006,0.122
		c0.322,0.079,0.6,0.215,0.834,0.403c0.232,0.189,0.395,0.411,0.48,0.668c0.084,0.254,0.131,0.52,0.131,0.797
		c0,0.183-0.014,0.462-0.035,0.847l-0.152,2.758c-0.014,0.287-0.018,0.618-0.018,0.992c-0.342-0.009-0.643-0.013-0.902-0.013
		c-0.283,0-0.604,0.004-0.967,0.013c0.061-0.497,0.117-1.174,0.172-2.032c0.059-0.858,0.086-1.469,0.086-1.831
		c0-0.332-0.057-0.59-0.16-0.779c-0.109-0.187-0.264-0.325-0.475-0.416c-0.209-0.089-0.438-0.137-0.684-0.137
		c-0.318,0-0.6,0.059-0.846,0.171c-0.234,0.108-0.434,0.273-0.59,0.492c-0.129,0.181-0.242,0.439-0.328,0.775
		c-0.094,0.354-0.162,0.901-0.205,1.641c-0.02,0.359-0.043,1.063-0.07,2.116c-0.332-0.009-0.617-0.013-0.859-0.013
		C118.611,64.245,118.293,64.249,117.883,64.259z"/>
	<path fill="#939292" d="M126.199,64.259c0.063-0.631,0.107-1.159,0.135-1.585c0.041-0.673,0.078-1.45,0.109-2.329
		c0.033-0.879,0.057-1.715,0.068-2.507c0.41,0.009,0.717,0.014,0.922,0.014c0.189,0,0.492-0.005,0.916-0.014
		c-0.057,0.732-0.102,1.432-0.137,2.097s-0.061,1.426-0.076,2.284c-0.014,0.858-0.023,1.539-0.023,2.04
		c-0.385-0.01-0.691-0.014-0.922-0.014C126.971,64.245,126.639,64.249,126.199,64.259z M126.543,56.74
		c0.018-0.433,0.025-0.765,0.025-0.995v-0.203c0.381,0.01,0.693,0.012,0.934,0.012c0.33,0,0.633-0.002,0.914-0.012
		c-0.012,0.105-0.021,0.224-0.025,0.36l-0.029,0.838c-0.32-0.007-0.617-0.011-0.883-0.011
		C127.207,56.729,126.896,56.733,126.543,56.74z"/>
	<path fill="#939292" d="M129.598,64.259c0.096-0.956,0.176-2.029,0.244-3.22c0.064-1.189,0.1-2.257,0.109-3.199
		c0.389,0.009,0.699,0.012,0.928,0.012c0.273,0,0.566-0.003,0.873-0.012l-0.07,1.072c0.131-0.185,0.246-0.332,0.344-0.44
		c0.1-0.108,0.227-0.217,0.381-0.323c0.154-0.104,0.316-0.188,0.492-0.252c0.172-0.063,0.369-0.115,0.584-0.152
		c0.217-0.036,0.445-0.056,0.68-0.056c0.375,0,0.732,0.046,1.076,0.141s0.621,0.245,0.83,0.452c0.211,0.206,0.35,0.431,0.416,0.675
		c0.068,0.245,0.102,0.502,0.102,0.776c0,0.113-0.004,0.296-0.02,0.541l-0.127,2.761c-0.02,0.382-0.027,0.79-0.035,1.224
		c-0.33-0.009-0.617-0.013-0.852-0.013c-0.32,0-0.643,0.004-0.967,0.013c0.033-0.365,0.074-1.004,0.127-1.916
		c0.049-0.911,0.074-1.514,0.074-1.809c0-0.334-0.053-0.599-0.156-0.802c-0.107-0.203-0.268-0.356-0.492-0.462
		c-0.219-0.105-0.457-0.159-0.713-0.159c-0.254,0-0.488,0.05-0.707,0.147c-0.217,0.097-0.406,0.237-0.566,0.422
		c-0.17,0.188-0.301,0.423-0.393,0.701c-0.1,0.294-0.17,0.781-0.215,1.457c-0.043,0.604-0.074,1.409-0.102,2.42
		c-0.326-0.009-0.619-0.013-0.879-0.013C130.303,64.245,129.979,64.249,129.598,64.259z"/>
	<path fill="#939292" d="M143.652,62.825c-0.055,0.25-0.131,0.695-0.232,1.338c-0.453,0.097-0.84,0.162-1.15,0.196
		c-0.313,0.033-0.625,0.051-0.939,0.051c-0.551,0-1.047-0.055-1.48-0.163c-0.438-0.11-0.818-0.311-1.146-0.604
		s-0.57-0.648-0.727-1.074c-0.156-0.423-0.232-0.87-0.232-1.337c0-0.517,0.09-1.018,0.271-1.505c0.18-0.485,0.434-0.882,0.76-1.19
		c0.328-0.311,0.697-0.528,1.115-0.656c0.416-0.13,0.852-0.192,1.307-0.192c0.432,0,0.836,0.053,1.225,0.16
		c0.389,0.106,0.713,0.282,0.975,0.526c0.264,0.244,0.465,0.537,0.609,0.879c0.139,0.343,0.209,0.724,0.209,1.143
		c0,0.199-0.023,0.402-0.064,0.61l-4.627,0.008c-0.008,0.156-0.012,0.28-0.012,0.372c0,0.283,0.047,0.54,0.145,0.776
		c0.096,0.237,0.236,0.436,0.424,0.602c0.184,0.162,0.406,0.284,0.662,0.362c0.258,0.077,0.51,0.115,0.758,0.115
		c0.291,0,0.607-0.03,0.945-0.095C142.783,63.084,143.186,62.977,143.652,62.825z M139.574,60.274l2.953,0.008
		c0-0.202-0.006-0.35-0.018-0.445c-0.018-0.098-0.043-0.207-0.086-0.33c-0.045-0.126-0.105-0.233-0.18-0.33
		c-0.074-0.093-0.164-0.171-0.264-0.235c-0.102-0.062-0.219-0.111-0.352-0.145s-0.275-0.049-0.426-0.049
		c-0.178,0-0.35,0.027-0.516,0.082c-0.166,0.054-0.318,0.132-0.455,0.238c-0.141,0.105-0.252,0.222-0.34,0.352
		c-0.084,0.13-0.148,0.255-0.193,0.376C139.658,59.915,139.617,60.073,139.574,60.274z"/>
	<path fill="#939292" d="M145.16,64.259l0.182-2.999l0.053-1.742c0.01-0.355,0.014-0.717,0.014-1.079
		c0-0.063-0.004-0.262-0.014-0.599c0.391,0.009,0.678,0.012,0.863,0.012c0.213,0,0.498-0.003,0.854-0.012l-0.031,0.891
		c0.16-0.229,0.297-0.397,0.41-0.508c0.113-0.113,0.242-0.209,0.381-0.289c0.143-0.08,0.297-0.141,0.473-0.183
		c0.172-0.041,0.348-0.063,0.529-0.063c0.168,0,0.34,0.021,0.518,0.063c0,0.394,0.02,0.888,0.057,1.489
		c-0.248-0.066-0.475-0.1-0.674-0.1c-0.246,0-0.457,0.035-0.646,0.11c-0.188,0.074-0.355,0.185-0.506,0.335
		c-0.15,0.149-0.271,0.333-0.369,0.553c-0.08,0.176-0.139,0.406-0.176,0.688c-0.035,0.218-0.061,0.593-0.082,1.123
		c-0.025,0.531-0.037,1.052-0.037,1.565c0,0.198,0.01,0.446,0.02,0.745c-0.318-0.009-0.611-0.013-0.879-0.013
		C145.836,64.245,145.521,64.249,145.16,64.259z"/>
	<path fill="#939292" d="M149.396,67.157c-0.076-0.631-0.139-1.086-0.184-1.364c0.404,0.188,0.785,0.283,1.143,0.283
		c0.109,0,0.223-0.014,0.334-0.041c0.115-0.028,0.221-0.065,0.318-0.115c0.063-0.034,0.125-0.082,0.189-0.147
		c0.066-0.063,0.156-0.177,0.27-0.346c0.115-0.169,0.209-0.335,0.297-0.498c0.066-0.14,0.137-0.317,0.207-0.531l-1.311-3.837
		l-0.959-2.723c0.439,0.009,0.756,0.014,0.949,0.014c0.225,0,0.516-0.005,0.877-0.014c0.09,0.35,0.172,0.653,0.248,0.909
		l0.602,1.981c0.184,0.611,0.318,1.068,0.396,1.376c0.053,0.202,0.111,0.469,0.178,0.801c0.127-0.382,0.236-0.694,0.328-0.933
		c0.162-0.439,0.393-1.024,0.686-1.756l0.611-1.508c0.109-0.27,0.223-0.559,0.338-0.871c0.377,0.009,0.666,0.014,0.863,0.014
		c0.18,0,0.484-0.005,0.908-0.014l-2.432,5.443l-1.055,2.404c-0.146,0.311-0.287,0.552-0.42,0.726
		c-0.111,0.147-0.23,0.273-0.361,0.377c-0.123,0.103-0.258,0.185-0.402,0.254c-0.182,0.084-0.379,0.152-0.588,0.202
		c-0.238,0.05-0.482,0.074-0.727,0.074c-0.137,0-0.33-0.012-0.58-0.036C149.873,67.257,149.631,67.214,149.396,67.157z"/>
</g>
</svg>
